<svg width="90" height="22" viewBox="0 0 90 22" fill="none" xmlns="http://www.w3.org/2000/svg">
  <path d="M27.4074 14.7892L25.5359 13.9514L26.6095 13.7974C26.8416 13.7642 27.0532 13.6557 27.206 13.4917C27.3588 13.3276 27.4428 13.1187 27.4428 12.9027V9.87415C27.4428 9.70403 27.3907 9.53735 27.2925 9.3932C27.1942 9.24904 27.0538 9.13323 26.8873 9.05906L24.9962 8.215L26.0796 8.05828C26.3116 8.02482 26.5229 7.91628 26.6755 7.75222C26.8281 7.58816 26.912 7.37938 26.9119 7.1635V4.13498C26.912 3.96495 26.86 3.79835 26.762 3.6542C26.6639 3.51005 26.5237 3.39419 26.3574 3.31989L19.1297 0.0921053C18.9766 0.0236457 18.8071 -0.00753864 18.6372 0.00153946L1.90454 0.98693C1.6554 1.00162 1.4216 1.10274 1.25045 1.26986C1.07931 1.43698 0.983604 1.65761 0.982618 1.88715L0.962899 6.24877C0.96213 6.42021 1.0143 6.58832 1.11334 6.73357C1.21237 6.87882 1.35423 6.99525 1.52238 7.0693L1.67109 7.13453C1.56633 7.28051 1.51018 7.45143 1.50954 7.62632L1.48886 11.9879C1.48818 12.1595 1.54051 12.3277 1.63973 12.4729C1.73895 12.6182 1.88096 12.7345 2.0493 12.8085L2.18921 12.8701C2.08746 13.0147 2.03307 13.1832 2.03256 13.3555L2.01289 17.7172C2.01194 17.8888 2.06399 18.057 2.16304 18.2025C2.26209 18.3479 2.40402 18.4645 2.57232 18.5386L10.0335 21.9113C10.2129 21.9902 10.4142 22.0174 10.6107 21.9891L27.1296 19.5249C27.3617 19.4916 27.5733 19.3831 27.7261 19.219C27.8789 19.0549 27.9629 18.8461 27.9629 18.6301V15.6006C27.9622 15.4311 27.9097 15.2652 27.8115 15.1218C27.7133 14.9783 27.5733 14.8631 27.4074 14.7892ZM26.1023 9.16231C26.1347 9.17662 26.1612 9.20015 26.1778 9.22944C26.1944 9.25873 26.2003 9.29222 26.1945 9.32483C26.1888 9.35744 26.1716 9.38745 26.1458 9.4104C26.1199 9.43334 26.0867 9.44796 26.0511 9.4521L10.261 11.3214C9.9544 11.3552 9.64404 11.2988 9.37453 11.1602L2.64225 7.56198L8.98939 10.3541C9.16882 10.4331 9.37008 10.4603 9.56662 10.432L24.2141 8.32728L26.1023 9.16231ZM2.01385 1.77213C1.98255 1.75596 1.95776 1.73093 1.9432 1.70076C1.92865 1.67058 1.92513 1.63685 1.9331 1.60466C1.94108 1.57247 1.96016 1.54354 1.9875 1.52214C2.01484 1.50074 2.04896 1.48803 2.08479 1.48593L18.4353 0.419964C18.6265 0.4073 18.8179 0.440729 18.9908 0.516898L25.5773 3.42314C25.6097 3.43745 25.6362 3.46102 25.6528 3.49032C25.6694 3.51961 25.6753 3.55305 25.6695 3.58566C25.6638 3.61827 25.6467 3.64828 25.6208 3.67123C25.5949 3.69417 25.5617 3.70879 25.5261 3.71293L9.73307 5.47626C9.42476 5.51055 9.11255 5.45377 8.84164 5.31415L2.01385 1.77213ZM26.5741 15.1813L10.784 17.1421C10.4773 17.1755 10.167 17.1187 9.89755 16.9799L3.22241 13.3247L9.5154 16.0933C9.69483 16.1723 9.89604 16.1994 10.0926 16.1712L24.7539 14.0646L26.6253 14.8924C26.6579 14.9066 26.6847 14.9302 26.7014 14.9596C26.7181 14.989 26.7239 15.0226 26.7178 15.0554C26.7118 15.0881 26.6943 15.1182 26.668 15.1409C26.6417 15.1636 26.608 15.1778 26.5721 15.1813H26.5741Z" fill="#1A0134"/>
  <path d="M32.381 19.5V2.31974H38.6886C39.8994 2.31974 40.8975 2.51609 41.6829 2.90878C42.4846 3.28511 43.0818 3.80052 43.4745 4.455C43.8672 5.10949 44.0636 5.85397 44.0636 6.68844C44.0636 7.57199 43.8672 8.30829 43.4745 8.89733C43.0982 9.48636 42.5991 9.93632 41.9774 10.2472C41.372 10.5581 40.7257 10.7462 40.0385 10.8117L40.4312 10.5663C41.1675 10.5826 41.8383 10.7872 42.4437 11.1798C43.0655 11.5562 43.5645 12.0634 43.9408 12.7015C44.3172 13.3233 44.5053 14.0269 44.5053 14.8122C44.5053 15.6794 44.2844 16.473 43.8427 17.1929C43.4173 17.8965 42.7873 18.461 41.9528 18.8864C41.1347 19.2955 40.1203 19.5 38.9095 19.5H32.381ZM34.5899 17.6593H38.664C39.8094 17.6593 40.693 17.3975 41.3147 16.8739C41.9365 16.3339 42.2474 15.5894 42.2474 14.6404C42.2474 13.6914 41.9201 12.9388 41.2656 12.3825C40.6111 11.8262 39.7276 11.548 38.615 11.548H34.5899V17.6593ZM34.5899 9.80543H38.4922C39.5558 9.80543 40.3739 9.55181 40.9466 9.04458C41.5192 8.53736 41.8056 7.84197 41.8056 6.95841C41.8056 6.10758 41.5274 5.42855 40.9711 4.92132C40.4148 4.39773 39.564 4.13594 38.4186 4.13594H34.5899V9.80543ZM45.3319 19.5V7.32656H47.5408V9.24093C47.819 8.60281 48.1953 8.11194 48.6698 7.76834C49.1443 7.40837 49.7252 7.22839 50.4124 7.22839H52.2286V9.29002H50.1915C49.6679 9.29002 49.2016 9.43728 48.7925 9.7318C48.3998 10.0263 48.089 10.5008 47.8599 11.1553C47.6472 11.7934 47.5408 12.6443 47.5408 13.7078V19.5H45.3319ZM57.3349 19.7945C56.1569 19.7945 55.1097 19.5327 54.1934 19.0091C53.2935 18.4692 52.5817 17.7247 52.0581 16.7757C51.5509 15.8267 51.2973 14.7141 51.2973 13.4378C51.2973 12.1452 51.5509 11.0244 52.0581 10.0754C52.5654 9.11003 53.2771 8.36556 54.1934 7.84197C55.1097 7.30202 56.165 7.03204 57.3595 7.03204C58.5539 7.03204 59.5765 7.30202 60.4274 7.84197C61.2946 8.36556 61.9572 9.06095 62.4154 9.92814C62.8899 10.7953 63.1271 11.7443 63.1271 12.7752C63.1271 12.9388 63.1271 13.1188 63.1271 13.3151C63.1271 13.4951 63.1189 13.6914 63.1026 13.9041H52.9417V12.2843H60.9428C60.8937 11.2208 60.5255 10.3863 59.8383 9.78088C59.1675 9.17548 58.3248 8.87278 57.3104 8.87278C56.6232 8.87278 55.985 9.02822 55.396 9.3391C54.807 9.63362 54.3325 10.0836 53.9725 10.689C53.6289 11.278 53.4571 12.0143 53.4571 12.8979V13.5605C53.4571 14.5259 53.6371 15.3358 53.997 15.9903C54.357 16.6448 54.8315 17.1357 55.4206 17.4629C56.0096 17.7902 56.6395 17.9538 57.3104 17.9538C58.1285 17.9538 58.8157 17.7656 59.372 17.3893C59.9283 17.013 60.3374 16.4975 60.5992 15.8431H62.7835C62.5708 16.5794 62.219 17.2502 61.7282 17.8556C61.2373 18.461 60.6155 18.9355 59.8629 19.2791C59.1266 19.6227 58.2839 19.7945 57.3349 19.7945ZM67.8118 19.7945C66.8301 19.7945 66.0038 19.6309 65.3329 19.3037C64.6621 18.96 64.1549 18.5101 63.8113 17.9538C63.484 17.3811 63.3204 16.7757 63.3204 16.1376C63.3204 14.8122 63.7949 13.806 64.7439 13.1188C65.7093 12.4152 66.9692 12.0634 68.5236 12.0634C69.2108 12.0634 69.8325 12.1125 70.3889 12.2107C70.9452 12.3088 71.4033 12.4234 71.7633 12.5543V12.0143C71.7633 10.9671 71.4851 10.1818 70.9288 9.65817C70.3889 9.11821 69.6607 8.84824 68.7445 8.84824C67.9918 8.84824 67.3373 9.00368 66.781 9.31456C66.241 9.62544 65.9056 10.149 65.7747 10.8853H63.5658C63.664 10.0181 63.9585 9.2982 64.4494 8.72552C64.9566 8.15285 65.5866 7.72743 66.3392 7.44928C67.0919 7.17112 67.8936 7.03204 68.7445 7.03204C70.4788 7.03204 71.7796 7.49018 72.6468 8.40646C73.5304 9.30638 73.9722 10.509 73.9722 12.0143V15.6713C73.9722 16.2603 74.0049 16.6939 74.0703 16.972C74.1521 17.2502 74.283 17.422 74.463 17.4875C74.643 17.5529 74.8884 17.5856 75.1993 17.5856H75.3711V19.5H74.9048C74.1031 19.5 73.4486 19.3691 72.9413 19.1073C72.4341 18.8455 72.0905 18.3219 71.9105 17.5365C71.5342 18.1747 71.0106 18.7146 70.3398 19.1564C69.6853 19.5818 68.8426 19.7945 67.8118 19.7945ZM68.1554 18.0029C68.8754 18.0029 69.4889 17.8229 69.9962 17.4629C70.5198 17.1029 70.9288 16.6284 71.2233 16.0394C71.5178 15.4504 71.6815 14.8286 71.7142 14.1741C71.3379 14.0596 70.8797 13.9614 70.3398 13.8796C69.7998 13.7814 69.2599 13.7323 68.7199 13.7323C67.6073 13.7323 66.7974 13.9532 66.2901 14.395C65.7993 14.8204 65.5538 15.3604 65.5538 16.0149C65.5538 16.5875 65.7747 17.062 66.2165 17.4384C66.6746 17.8147 67.321 18.0029 68.1554 18.0029ZM81.2813 19.7945C80.0705 19.7945 79.0151 19.5164 78.1152 18.96C77.2153 18.4037 76.5117 17.6429 76.0045 16.6775C75.4972 15.7122 75.2436 14.6159 75.2436 13.3887C75.2436 12.1616 75.4972 11.0735 76.0045 10.1245C76.5117 9.15912 77.2153 8.40646 78.1152 7.86651C79.0315 7.3102 80.0868 7.03204 81.2813 7.03204C82.2793 7.03204 83.1547 7.23657 83.9074 7.64562C84.6764 8.03831 85.2654 8.59463 85.6745 9.31456V1.82888H87.8834V19.5H85.6745V17.512C85.2818 18.101 84.7255 18.6328 84.0055 19.1073C83.302 19.5654 82.3939 19.7945 81.2813 19.7945ZM81.5758 17.8801C82.3775 17.8801 83.0811 17.692 83.6865 17.3157C84.2919 16.9393 84.7664 16.4157 85.11 15.7449C85.4536 15.074 85.6254 14.2968 85.6254 13.4133C85.6254 12.5297 85.4536 11.7525 85.11 11.0817C84.7664 10.4108 84.2919 9.88724 83.6865 9.51091C83.0811 9.13458 82.3775 8.94641 81.5758 8.94641C80.7904 8.94641 80.0868 9.13458 79.4651 9.51091C78.8433 9.88724 78.3606 10.4108 78.017 11.0817C77.6734 11.7362 77.5016 12.5134 77.5016 13.4133C77.5016 14.2968 77.6734 15.074 78.017 15.7449C78.3606 16.4157 78.8433 16.9393 79.4651 17.3157C80.0868 17.692 80.7904 17.8801 81.5758 17.8801Z" fill="#1A0134"/>
</svg>  